<mxfile host="Electron" agent="Mozilla/5.0 (Macintosh; Intel Mac OS X 10_15_7) AppleWebKit/537.36 (KHTML, like Gecko) draw.io/28.0.4 Chrome/138.0.7204.97 Electron/37.2.1 Safari/537.36" version="28.0.4">
  <diagram name="Page-1" id="DCIBXwC-I0jSWs0JfKqc">
    <mxGraphModel dx="366" dy="236" grid="1" gridSize="10" guides="1" tooltips="1" connect="1" arrows="1" fold="1" page="1" pageScale="1" pageWidth="850" pageHeight="1100" math="0" shadow="0">
      <root>
        <mxCell id="0" />
        <mxCell id="1" parent="0" />
        <mxCell id="6kYhPi5QQzZUY_HHYKGR-11" value="" style="swimlane;startSize=0;fillColor=default;strokeColor=none;" parent="1" vertex="1">
          <mxGeometry x="190" y="160" width="570" height="520" as="geometry" />
        </mxCell>
        <mxCell id="6kYhPi5QQzZUY_HHYKGR-1" value="" style="swimlane;startSize=0;" parent="6kYhPi5QQzZUY_HHYKGR-11" vertex="1">
          <mxGeometry x="-70" width="650" height="480" as="geometry" />
        </mxCell>
        <mxCell id="XvKT46UcR8Hh-J2pTopJ-1" value="Roy" style="rounded=0;whiteSpace=wrap;html=1;" vertex="1" parent="6kYhPi5QQzZUY_HHYKGR-1">
          <mxGeometry x="90" y="110" width="120" height="90" as="geometry" />
        </mxCell>
        <mxCell id="XvKT46UcR8Hh-J2pTopJ-12" style="edgeStyle=orthogonalEdgeStyle;rounded=0;orthogonalLoop=1;jettySize=auto;html=1;entryX=0;entryY=0.5;entryDx=0;entryDy=0;" edge="1" parent="6kYhPi5QQzZUY_HHYKGR-1">
          <mxGeometry relative="1" as="geometry">
            <mxPoint x="210" y="264.7685714285714" as="sourcePoint" />
            <mxPoint x="355" y="264.73999999999995" as="targetPoint" />
            <Array as="points">
              <mxPoint x="250" y="264.73999999999995" />
              <mxPoint x="250" y="264.73999999999995" />
            </Array>
          </mxGeometry>
        </mxCell>
        <mxCell id="XvKT46UcR8Hh-J2pTopJ-13" value="Lights Off : bool" style="edgeLabel;html=1;align=center;verticalAlign=middle;resizable=0;points=[];" vertex="1" connectable="0" parent="XvKT46UcR8Hh-J2pTopJ-12">
          <mxGeometry x="-0.2473" y="1" relative="1" as="geometry">
            <mxPoint as="offset" />
          </mxGeometry>
        </mxCell>
        <mxCell id="XvKT46UcR8Hh-J2pTopJ-2" value="Fusebox" style="rounded=0;whiteSpace=wrap;html=1;" vertex="1" parent="6kYhPi5QQzZUY_HHYKGR-1">
          <mxGeometry x="90" y="220" width="120" height="90" as="geometry" />
        </mxCell>
        <mxCell id="XvKT46UcR8Hh-J2pTopJ-3" value="Player" style="rounded=0;whiteSpace=wrap;html=1;" vertex="1" parent="6kYhPi5QQzZUY_HHYKGR-1">
          <mxGeometry x="90" y="330" width="120" height="90" as="geometry" />
        </mxCell>
        <mxCell id="6kYhPi5QQzZUY_HHYKGR-4" value="&lt;div&gt;&lt;font&gt;&lt;br&gt;&lt;/font&gt;&lt;/div&gt;&lt;font&gt;Game Stepper&lt;/font&gt;&lt;div&gt;&lt;font&gt;&lt;br&gt;&lt;/font&gt;&lt;/div&gt;" style="text;html=1;align=center;verticalAlign=middle;whiteSpace=wrap;rounded=0;strokeColor=none;fontSize=13;" parent="6kYhPi5QQzZUY_HHYKGR-1" vertex="1">
          <mxGeometry x="240" y="20" width="190" height="30" as="geometry" />
        </mxCell>
        <mxCell id="XvKT46UcR8Hh-J2pTopJ-8" style="edgeStyle=orthogonalEdgeStyle;rounded=0;orthogonalLoop=1;jettySize=auto;html=1;exitX=0.999;exitY=0.109;exitDx=0;exitDy=0;entryX=0;entryY=0.5;entryDx=0;entryDy=0;exitPerimeter=0;" edge="1" parent="6kYhPi5QQzZUY_HHYKGR-1" source="XvKT46UcR8Hh-J2pTopJ-4">
          <mxGeometry relative="1" as="geometry">
            <mxPoint x="595" y="165" as="sourcePoint" />
            <mxPoint x="90" y="135" as="targetPoint" />
            <Array as="points">
              <mxPoint x="595" y="165" />
              <mxPoint x="615" y="165" />
              <mxPoint x="615" y="80" />
              <mxPoint x="70" y="80" />
              <mxPoint x="70" y="135" />
            </Array>
          </mxGeometry>
        </mxCell>
        <mxCell id="XvKT46UcR8Hh-J2pTopJ-9" value="Lights Off : bool" style="edgeLabel;html=1;align=center;verticalAlign=middle;resizable=0;points=[];" vertex="1" connectable="0" parent="XvKT46UcR8Hh-J2pTopJ-8">
          <mxGeometry x="0.7119" y="-1" relative="1" as="geometry">
            <mxPoint as="offset" />
          </mxGeometry>
        </mxCell>
        <mxCell id="XvKT46UcR8Hh-J2pTopJ-4" value="Environment" style="rounded=0;whiteSpace=wrap;html=1;" vertex="1" parent="6kYhPi5QQzZUY_HHYKGR-1">
          <mxGeometry x="355" y="130" width="240" height="290" as="geometry" />
        </mxCell>
        <mxCell id="XvKT46UcR8Hh-J2pTopJ-10" style="edgeStyle=orthogonalEdgeStyle;rounded=0;orthogonalLoop=1;jettySize=auto;html=1;entryX=0.011;entryY=0.07;entryDx=0;entryDy=0;entryPerimeter=0;" edge="1" parent="6kYhPi5QQzZUY_HHYKGR-1" source="XvKT46UcR8Hh-J2pTopJ-1" target="XvKT46UcR8Hh-J2pTopJ-4">
          <mxGeometry relative="1" as="geometry">
            <Array as="points">
              <mxPoint x="320" y="150" />
            </Array>
          </mxGeometry>
        </mxCell>
        <mxCell id="XvKT46UcR8Hh-J2pTopJ-11" value="Move : { N, E, S, W }" style="edgeLabel;html=1;align=center;verticalAlign=middle;resizable=0;points=[];" vertex="1" connectable="0" parent="XvKT46UcR8Hh-J2pTopJ-10">
          <mxGeometry x="-0.075" relative="1" as="geometry">
            <mxPoint x="2" as="offset" />
          </mxGeometry>
        </mxCell>
        <mxCell id="XvKT46UcR8Hh-J2pTopJ-14" style="edgeStyle=orthogonalEdgeStyle;rounded=0;orthogonalLoop=1;jettySize=auto;html=1;entryX=-0.008;entryY=0.846;entryDx=0;entryDy=0;entryPerimeter=0;" edge="1" parent="6kYhPi5QQzZUY_HHYKGR-1" source="XvKT46UcR8Hh-J2pTopJ-3" target="XvKT46UcR8Hh-J2pTopJ-4">
          <mxGeometry relative="1" as="geometry" />
        </mxCell>
        <mxCell id="XvKT46UcR8Hh-J2pTopJ-16" value="Move : { N, E, S, W }" style="edgeLabel;html=1;align=center;verticalAlign=middle;resizable=0;points=[];" vertex="1" connectable="0" parent="XvKT46UcR8Hh-J2pTopJ-14">
          <mxGeometry x="-0.3264" y="1" relative="1" as="geometry">
            <mxPoint x="22" y="1" as="offset" />
          </mxGeometry>
        </mxCell>
        <mxCell id="XvKT46UcR8Hh-J2pTopJ-17" style="edgeStyle=orthogonalEdgeStyle;rounded=0;orthogonalLoop=1;jettySize=auto;html=1;entryX=0;entryY=0.5;entryDx=0;entryDy=0;exitX=1;exitY=0.5;exitDx=0;exitDy=0;" edge="1" parent="6kYhPi5QQzZUY_HHYKGR-1" source="XvKT46UcR8Hh-J2pTopJ-4" target="XvKT46UcR8Hh-J2pTopJ-2">
          <mxGeometry relative="1" as="geometry">
            <Array as="points">
              <mxPoint x="615" y="275" />
              <mxPoint x="615" y="460" />
              <mxPoint x="20" y="460" />
              <mxPoint x="20" y="265" />
            </Array>
          </mxGeometry>
        </mxCell>
        <mxCell id="XvKT46UcR8Hh-J2pTopJ-18" value="Flip : bool" style="edgeLabel;html=1;align=center;verticalAlign=middle;resizable=0;points=[];" vertex="1" connectable="0" parent="XvKT46UcR8Hh-J2pTopJ-17">
          <mxGeometry x="0.9308" relative="1" as="geometry">
            <mxPoint as="offset" />
          </mxGeometry>
        </mxCell>
      </root>
    </mxGraphModel>
  </diagram>
</mxfile>
